<?xml version="1.0" encoding="iso-8859-1"?>
<!-- Uploaded to: SVG Repo, www.svgrepo.com, Generator: SVG Repo Mixer Tools -->
<svg fill="#000000" height="800px" width="800px" version="1.1" id="Layer_1" xmlns="http://www.w3.org/2000/svg" xmlns:xlink="http://www.w3.org/1999/xlink" 
	 viewBox="0 0 512 512" xml:space="preserve">
<g>
	<g>
		<path d="M363.342,71.578c-1.946-2.152-4.821-3.277-7.683-2.955c-1.92,0.192-47.687,4.964-99.789,26.96
			c-69.781,29.464-116.995,76.035-136.544,134.673C76.469,358.83,9.027,370.205,7.942,370.37c-4.973,0.656-8.495,5.21-7.871,10.197
			c0.576,4.625,4.518,8.009,9.058,8.009c0.379,0,0.763-0.022,1.147-0.072c3.219-0.402,79.401-11.477,126.396-152.463
			C173.182,126.515,303.98,95.711,345.06,88.649l-6.598,32.991c-0.991,4.951,2.219,9.768,7.17,10.759
			c4.96,0.991,9.772-2.223,10.759-7.17l9.143-45.714C366.105,76.671,365.288,73.725,363.342,71.578z"/>
	</g>
</g>
<g>
	<g>
		<path d="M506.943,371.254c-101.763-50.879-68.705-189.36-68.267-191.168l9.143-45.714c0.571-2.844-0.245-5.79-2.192-7.937
			c-1.946-2.147-4.83-3.259-7.683-2.955c-1.92,0.192-47.687,4.964-99.789,26.96c-69.781,29.464-116.995,76.035-136.544,134.673
			C158.754,413.687,91.312,425.062,90.228,425.227c-4.973,0.656-8.495,5.21-7.87,10.196c0.576,4.625,4.518,8.009,9.058,8.009
			c0.38,0,0.763-0.022,1.147-0.072c3.219-0.402,79.401-11.477,126.396-152.463C255.467,181.371,386.27,150.568,427.35,143.506
			l-6.509,32.567c-0.384,1.536-37.018,154.066,77.924,211.538c4.536,2.263,10.013,0.429,12.268-4.089
			C513.291,379.004,511.461,373.513,506.943,371.254z"/>
	</g>
</g>
</svg>